<?xml version="1.0" encoding="UTF-8"?>
<svg id="Layer_1" data-name="Layer 1" xmlns="http://www.w3.org/2000/svg" viewBox="0 0 704 530">
  <defs>
    <style>
      .cls-1 {
        fill: #d63647;
      }

      .cls-2 {
        fill: #fff;
      }

      .cls-3 {
        fill: #003976;
      }
    </style>
  </defs>
  <g>
    <path d="M107.87,418v27.71c0,4.88-1.48,8.72-4.42,11.51-2.95,2.79-7,4.19-12.16,4.19s-9.15-1.41-11.97-4.22c-2.82-2.81-4.23-6.68-4.23-11.6v-27.6h4.98v27.95c0,3.57.98,6.32,2.93,8.23,1.95,1.91,4.82,2.87,8.61,2.87s6.4-.96,8.35-2.89c1.95-1.92,2.93-4.68,2.93-8.28v-27.89h4.98Z"/>
    <path d="M117.17,457.73c0-1.31.3-2.3.89-2.97.6-.67,1.45-1.01,2.56-1.01s2.02.34,2.65,1.01c.63.67.95,1.67.95,2.97s-.32,2.25-.97,2.93-1.52,1.03-2.64,1.03c-1,0-1.82-.31-2.48-.92-.65-.62-.98-1.63-.98-3.03Z"/>
    <path d="M159.34,449.44c0,3.77-1.37,6.71-4.1,8.82-2.73,2.11-6.45,3.16-11.13,3.16-5.08,0-8.98-.65-11.72-1.96v-4.8c1.76.74,3.67,1.33,5.74,1.76,2.07.43,4.12.64,6.15.64,3.32,0,5.82-.63,7.5-1.89,1.68-1.26,2.52-3.01,2.52-5.26,0-1.48-.3-2.7-.89-3.65-.6-.95-1.59-1.82-2.99-2.62-1.4-.8-3.52-1.71-6.37-2.72-3.98-1.43-6.83-3.12-8.54-5.07-1.71-1.95-2.56-4.5-2.56-7.65,0-3.3,1.24-5.93,3.72-7.88,2.48-1.95,5.76-2.93,9.84-2.93s8.17.78,11.75,2.34l-1.55,4.34c-3.54-1.48-6.97-2.23-10.31-2.23-2.64,0-4.7.57-6.18,1.7-1.48,1.13-2.23,2.71-2.23,4.72,0,1.48.27,2.7.82,3.65.55.95,1.47,1.82,2.77,2.61,1.3.79,3.29,1.67,5.96,2.62,4.49,1.6,7.58,3.32,9.27,5.16,1.69,1.84,2.53,4.22,2.53,7.15Z"/>
    <path d="M167.26,457.73c0-1.31.3-2.3.89-2.97.6-.67,1.45-1.01,2.56-1.01s2.02.34,2.65,1.01c.63.67.95,1.67.95,2.97s-.32,2.25-.97,2.93-1.52,1.03-2.64,1.03c-1,0-1.82-.31-2.48-.92-.65-.62-.98-1.63-.98-3.03Z"/>
    <path d="M220.41,460.84l-14.53-37.97h-.23c.27,3.01.41,6.58.41,10.72v27.25h-4.6v-42.83h7.5l13.56,35.33h.23l13.68-35.33h7.44v42.83h-4.98v-27.6c0-3.16.14-6.6.41-10.31h-.23l-14.65,37.91h-4.01Z"/>
    <path d="M255.08,420.03c0-1.11.27-1.93.82-2.45.55-.52,1.23-.78,2.05-.78s1.45.26,2.02.79c.57.53.85,1.34.85,2.43s-.28,1.91-.85,2.45c-.57.54-1.24.81-2.02.81-.82,0-1.5-.27-2.05-.81-.55-.54-.82-1.35-.82-2.45ZM260.35,460.84h-4.86v-32.11h4.86v32.11Z"/>
    <path d="M291.98,452.08c0,2.99-1.11,5.29-3.34,6.91s-5.35,2.43-9.38,2.43c-4.26,0-7.58-.67-9.96-2.02v-4.51c1.54.78,3.2,1.4,4.97,1.85,1.77.45,3.47.67,5.11.67,2.54,0,4.49-.41,5.86-1.22,1.37-.81,2.05-2.05,2.05-3.71,0-1.25-.54-2.32-1.63-3.21s-3.2-1.94-6.34-3.15c-2.99-1.11-5.11-2.08-6.37-2.92s-2.2-1.77-2.81-2.83-.92-2.31-.92-3.78c0-2.62,1.06-4.68,3.19-6.2,2.13-1.51,5.05-2.27,8.76-2.27,3.46,0,6.84.7,10.14,2.11l-1.73,3.96c-3.22-1.33-6.14-1.99-8.76-1.99-2.3,0-4.04.36-5.21,1.08s-1.76,1.72-1.76,2.99c0,.86.22,1.59.66,2.2s1.15,1.18,2.12,1.73c.98.55,2.85,1.34,5.62,2.37,3.81,1.39,6.38,2.78,7.72,4.19,1.34,1.41,2.01,3.17,2.01,5.3Z"/>
    <path d="M321.2,452.08c0,2.99-1.11,5.29-3.34,6.91s-5.35,2.43-9.38,2.43c-4.26,0-7.58-.67-9.96-2.02v-4.51c1.54.78,3.2,1.4,4.97,1.85,1.77.45,3.47.67,5.11.67,2.54,0,4.49-.41,5.86-1.22,1.37-.81,2.05-2.05,2.05-3.71,0-1.25-.54-2.32-1.63-3.21s-3.2-1.94-6.34-3.15c-2.99-1.11-5.11-2.08-6.37-2.92s-2.2-1.77-2.81-2.83-.92-2.31-.92-3.78c0-2.62,1.06-4.68,3.19-6.2,2.13-1.51,5.05-2.27,8.76-2.27,3.46,0,6.84.7,10.14,2.11l-1.73,3.96c-3.22-1.33-6.14-1.99-8.76-1.99-2.3,0-4.04.36-5.21,1.08s-1.76,1.72-1.76,2.99c0,.86.22,1.59.66,2.2s1.15,1.18,2.12,1.73c.98.55,2.85,1.34,5.62,2.37,3.81,1.39,6.38,2.78,7.72,4.19,1.34,1.41,2.01,3.17,2.01,5.3Z"/>
    <path d="M329.3,420.03c0-1.11.27-1.93.82-2.45.55-.52,1.23-.78,2.05-.78s1.45.26,2.02.79c.57.53.85,1.34.85,2.43s-.28,1.91-.85,2.45c-.57.54-1.24.81-2.02.81-.82,0-1.5-.27-2.05-.81-.55-.54-.82-1.35-.82-2.45ZM334.58,460.84h-4.86v-32.11h4.86v32.11Z"/>
    <path d="M373.2,444.75c0,5.23-1.32,9.32-3.95,12.26-2.64,2.94-6.28,4.41-10.93,4.41-2.87,0-5.42-.67-7.65-2.02s-3.95-3.28-5.16-5.8c-1.21-2.52-1.82-5.47-1.82-8.85,0-5.23,1.31-9.31,3.93-12.23,2.62-2.92,6.25-4.38,10.9-4.38s8.06,1.49,10.71,4.48c2.65,2.99,3.97,7.03,3.97,12.13ZM348.74,444.75c0,4.1.82,7.23,2.46,9.38s4.05,3.22,7.24,3.22,5.6-1.07,7.25-3.21c1.65-2.14,2.48-5.27,2.48-9.39s-.83-7.18-2.48-9.3c-1.65-2.12-4.09-3.18-7.31-3.18s-5.59,1.04-7.21,3.13c-1.62,2.09-2.43,5.21-2.43,9.35Z"/>
    <path d="M404.3,460.84v-20.77c0-2.62-.6-4.57-1.79-5.86s-3.06-1.93-5.6-1.93c-3.36,0-5.82.91-7.38,2.72s-2.34,4.81-2.34,8.99v16.85h-4.86v-32.11h3.96l.79,4.39h.23c1-1.58,2.39-2.81,4.19-3.68s3.8-1.3,6.01-1.3c3.87,0,6.78.93,8.73,2.8s2.93,4.85,2.93,8.95v20.95h-4.86Z"/>
    <path d="M470.13,460.84h-5.68l-23.41-35.95h-.23c.31,4.22.47,8.09.47,11.6v24.35h-4.6v-42.83h5.62l23.35,35.8h.23c-.04-.53-.13-2.22-.26-5.08s-.19-4.91-.15-6.14v-24.58h4.66v42.83Z"/>
    <path d="M481.36,420.03c0-1.11.27-1.93.82-2.45s1.23-.78,2.05-.78,1.46.26,2.02.79.85,1.34.85,2.43-.28,1.91-.85,2.45-1.24.81-2.02.81c-.82,0-1.5-.27-2.05-.81s-.82-1.35-.82-2.45ZM486.64,460.84h-4.86v-32.11h4.86v32.11Z"/>
    <path d="M523.83,428.73v3.08l-5.95.7c.55.68,1.04,1.58,1.46,2.68s.64,2.35.64,3.74c0,3.14-1.07,5.65-3.22,7.53s-5.1,2.81-8.85,2.81c-.96,0-1.86-.08-2.7-.23-2.07,1.09-3.11,2.47-3.11,4.13,0,.88.36,1.53,1.08,1.95s1.96.63,3.72.63h5.68c3.48,0,6.15.73,8.01,2.2s2.8,3.59,2.8,6.39c0,3.55-1.43,6.26-4.28,8.13s-7.01,2.8-12.48,2.8c-4.2,0-7.44-.78-9.71-2.34s-3.41-3.77-3.41-6.62c0-1.95.62-3.64,1.88-5.07s3.01-2.39,5.27-2.9c-.82-.37-1.51-.95-2.07-1.73s-.83-1.69-.83-2.72c0-1.17.31-2.2.94-3.08s1.61-1.73,2.96-2.55c-1.66-.68-3.01-1.85-4.06-3.49s-1.57-3.52-1.57-5.62c0-3.52,1.05-6.23,3.16-8.13s5.1-2.86,8.96-2.86c1.68,0,3.19.2,4.54.59h11.1ZM498.22,466.23c0,1.74.73,3.06,2.2,3.96s3.56,1.35,6.3,1.35c4.08,0,7.1-.61,9.07-1.83s2.94-2.88,2.94-4.97c0-1.74-.54-2.94-1.61-3.62s-3.1-1.01-6.06-1.01h-5.83c-2.21,0-3.93.53-5.16,1.58s-1.85,2.57-1.85,4.54ZM500.86,439.01c0,2.25.63,3.95,1.9,5.1s3.04,1.73,5.3,1.73c4.75,0,7.12-2.3,7.12-6.91s-2.4-7.24-7.21-7.24c-2.29,0-4.04.62-5.27,1.85s-1.85,3.06-1.85,5.48Z"/>
    <path d="M544.59,461.42c-4.75,0-8.49-1.45-11.24-4.34s-4.12-6.9-4.12-12.04,1.27-9.29,3.82-12.33,5.97-4.57,10.27-4.57c4.02,0,7.21,1.32,9.55,3.97s3.52,6.14,3.52,10.47v3.08h-22.12c.1,3.77,1.05,6.63,2.86,8.58s4.35,2.93,7.63,2.93c3.46,0,6.88-.72,10.25-2.17v4.34c-1.72.74-3.34,1.27-4.88,1.6s-3.38.48-5.55.48ZM543.27,432.21c-2.58,0-4.63.84-6.17,2.52s-2.44,4-2.71,6.97h16.79c0-3.07-.68-5.42-2.05-7.05s-3.32-2.45-5.86-2.45Z"/>
    <path d="M579.93,428.14c1.43,0,2.71.12,3.84.35l-.67,4.51c-1.33-.29-2.5-.44-3.52-.44-2.6,0-4.82,1.05-6.67,3.16s-2.77,4.74-2.77,7.88v17.23h-4.86v-32.11h4.01l.56,5.95h.23c1.19-2.09,2.63-3.7,4.31-4.83s3.53-1.7,5.54-1.7Z"/>
    <path d="M589.97,420.03c0-1.11.27-1.93.82-2.45s1.23-.78,2.05-.78,1.46.26,2.02.79.85,1.34.85,2.43-.28,1.91-.85,2.45-1.24.81-2.02.81c-.82,0-1.5-.27-2.05-.81s-.82-1.35-.82-2.45ZM595.24,460.84h-4.86v-32.11h4.86v32.11Z"/>
    <path d="M625.9,460.84l-.97-4.57h-.23c-1.6,2.01-3.2,3.37-4.79,4.09s-3.58,1.07-5.96,1.07c-3.18,0-5.68-.82-7.49-2.46s-2.71-3.97-2.71-7c0-6.48,5.19-9.88,15.56-10.2l5.45-.18v-1.99c0-2.52-.54-4.38-1.63-5.58s-2.82-1.8-5.2-1.8c-2.68,0-5.7.82-9.08,2.46l-1.49-3.72c1.58-.86,3.32-1.53,5.2-2.02s3.77-.73,5.67-.73c3.83,0,6.67.85,8.51,2.55s2.77,4.42,2.77,8.17v21.91h-3.6ZM614.91,457.41c3.03,0,5.41-.83,7.13-2.49s2.59-3.98,2.59-6.97v-2.9l-4.86.21c-3.87.14-6.66.74-8.36,1.8s-2.56,2.72-2.56,4.97c0,1.76.53,3.1,1.6,4.01s2.55,1.38,4.47,1.38Z"/>
  </g>
  <g>
    <g>
      <rect class="cls-2" x="69.14" y="229.09" width="565.72" height="22.9"/>
      <rect class="cls-2" x="69.14" y="274.9" width="565.72" height="22.9"/>
      <rect class="cls-2" x="69.14" y="320.7" width="565.72" height="22.9"/>
      <rect class="cls-2" x="295.43" y="91.67" width="339.43" height="22.9"/>
      <rect class="cls-2" x="295.43" y="137.48" width="339.43" height="22.9"/>
      <rect class="cls-2" x="295.43" y="183.28" width="339.43" height="22.9"/>
    </g>
    <g>
      <rect class="cls-1" x="69.14" y="251.99" width="565.72" height="22.9"/>
      <rect class="cls-1" x="69.14" y="297.8" width="565.72" height="22.9"/>
      <rect class="cls-1" x="69.14" y="343.61" width="565.72" height="22.9"/>
      <rect class="cls-1" x="295.43" y="68.76" width="339.43" height="22.9"/>
      <rect class="cls-1" x="295.43" y="114.57" width="339.43" height="22.9"/>
      <rect class="cls-1" x="295.43" y="160.38" width="339.43" height="22.9"/>
      <rect class="cls-1" x="295.43" y="206.19" width="339.43" height="22.9"/>
    </g>
    <rect class="cls-3" x="69.14" y="68.76" width="226.29" height="160.33"/>
    <g>
      <g>
        <polygon class="cls-2" points="79.66 88.56 81.49 82.91 76.69 79.42 82.63 79.42 84.47 73.77 86.3 79.42 92.24 79.42 87.44 82.91 89.27 88.56 84.47 85.07 79.66 88.56"/>
        <polygon class="cls-2" points="99.22 105.43 101.06 99.78 96.25 96.28 102.19 96.28 104.03 90.63 105.87 96.28 111.81 96.28 107 99.78 108.83 105.43 104.03 101.94 99.22 105.43"/>
        <polygon class="cls-2" points="118.79 88.56 120.62 82.91 115.82 79.42 121.76 79.42 123.59 73.77 125.43 79.42 131.37 79.42 126.56 82.91 128.4 88.56 123.59 85.07 118.79 88.56"/>
        <polygon class="cls-2" points="138.35 105.43 140.19 99.78 135.38 96.28 141.32 96.28 143.16 90.63 144.99 96.28 150.93 96.28 146.13 99.78 147.96 105.43 143.16 101.94 138.35 105.43"/>
        <polygon class="cls-2" points="157.91 88.56 159.75 82.91 154.94 79.42 160.88 79.42 162.72 73.77 164.56 79.42 170.5 79.42 165.69 82.91 167.53 88.56 162.72 85.07 157.91 88.56"/>
        <polygon class="cls-2" points="177.48 105.43 179.31 99.78 174.51 96.28 180.45 96.28 182.28 90.63 184.12 96.28 190.06 96.28 185.25 99.78 187.09 105.43 182.28 101.94 177.48 105.43"/>
        <polygon class="cls-2" points="197.04 88.56 198.88 82.91 194.07 79.42 200.01 79.42 201.85 73.77 203.68 79.42 209.62 79.42 204.82 82.91 206.65 88.56 201.85 85.07 197.04 88.56"/>
        <polygon class="cls-2" points="216.6 105.43 218.44 99.78 213.63 96.28 219.57 96.28 221.41 90.63 223.25 96.28 229.19 96.28 224.38 99.78 226.22 105.43 221.41 101.94 216.6 105.43"/>
        <polygon class="cls-2" points="236.17 88.56 238 82.91 233.2 79.42 239.14 79.42 240.97 73.77 242.81 79.42 248.75 79.42 243.94 82.91 245.78 88.56 240.97 85.07 236.17 88.56"/>
        <polygon class="cls-2" points="255.73 105.43 257.57 99.78 252.76 96.28 258.7 96.28 260.54 90.63 262.37 96.28 268.31 96.28 263.51 99.78 265.34 105.43 260.54 101.94 255.73 105.43"/>
        <polygon class="cls-2" points="275.29 88.56 277.13 82.91 272.32 79.42 278.27 79.42 280.1 73.77 281.94 79.42 287.88 79.42 283.07 82.91 284.91 88.56 280.1 85.07 275.29 88.56"/>
      </g>
      <g>
        <polygon class="cls-2" points="79.66 122.37 81.49 116.72 76.69 113.23 82.63 113.23 84.47 107.58 86.3 113.23 92.24 113.23 87.44 116.72 89.27 122.37 84.47 118.88 79.66 122.37"/>
        <polygon class="cls-2" points="99.22 139.24 101.06 133.58 96.25 130.09 102.19 130.09 104.03 124.44 105.87 130.09 111.81 130.09 107 133.59 108.83 139.24 104.03 135.74 99.22 139.24"/>
        <polygon class="cls-2" points="118.79 122.37 120.62 116.72 115.82 113.23 121.76 113.23 123.59 107.58 125.43 113.23 131.37 113.23 126.56 116.72 128.4 122.37 123.59 118.88 118.79 122.37"/>
        <polygon class="cls-2" points="138.35 139.24 140.19 133.58 135.38 130.09 141.32 130.09 143.16 124.44 144.99 130.09 150.93 130.09 146.13 133.59 147.96 139.24 143.16 135.74 138.35 139.24"/>
        <polygon class="cls-2" points="157.91 122.37 159.75 116.72 154.94 113.23 160.88 113.23 162.72 107.58 164.56 113.23 170.5 113.23 165.69 116.72 167.53 122.37 162.72 118.88 157.91 122.37"/>
        <polygon class="cls-2" points="177.48 139.24 179.31 133.58 174.51 130.09 180.45 130.09 182.28 124.44 184.12 130.09 190.06 130.09 185.25 133.59 187.09 139.24 182.28 135.74 177.48 139.24"/>
        <polygon class="cls-2" points="197.04 122.37 198.88 116.72 194.07 113.23 200.01 113.23 201.85 107.58 203.68 113.23 209.62 113.23 204.82 116.72 206.65 122.37 201.85 118.88 197.04 122.37"/>
        <polygon class="cls-2" points="216.6 139.24 218.44 133.58 213.63 130.09 219.57 130.09 221.41 124.44 223.25 130.09 229.19 130.09 224.38 133.59 226.22 139.24 221.41 135.74 216.6 139.24"/>
        <polygon class="cls-2" points="236.17 122.37 238 116.72 233.2 113.23 239.14 113.23 240.97 107.58 242.81 113.23 248.75 113.23 243.94 116.72 245.78 122.37 240.97 118.88 236.17 122.37"/>
        <polygon class="cls-2" points="255.73 139.24 257.57 133.58 252.76 130.09 258.7 130.09 260.54 124.44 262.37 130.09 268.31 130.09 263.51 133.59 265.34 139.24 260.54 135.74 255.73 139.24"/>
        <polygon class="cls-2" points="275.29 122.37 277.13 116.72 272.32 113.23 278.27 113.23 280.1 107.58 281.94 113.23 287.88 113.23 283.07 116.72 284.91 122.37 280.1 118.88 275.29 122.37"/>
      </g>
      <g>
        <polygon class="cls-2" points="79.66 156.25 81.49 150.6 76.69 147.11 82.63 147.11 84.47 141.46 86.3 147.11 92.24 147.11 87.44 150.6 89.27 156.25 84.47 152.76 79.66 156.25"/>
        <polygon class="cls-2" points="99.22 173.12 101.06 167.47 96.25 163.98 102.19 163.98 104.03 158.33 105.87 163.98 111.81 163.98 107 167.47 108.83 173.12 104.03 169.63 99.22 173.12"/>
        <polygon class="cls-2" points="118.79 156.25 120.62 150.6 115.82 147.11 121.76 147.11 123.59 141.46 125.43 147.11 131.37 147.11 126.56 150.6 128.4 156.25 123.59 152.76 118.79 156.25"/>
        <polygon class="cls-2" points="138.35 173.12 140.19 167.47 135.38 163.98 141.32 163.98 143.16 158.33 144.99 163.98 150.93 163.98 146.13 167.47 147.96 173.12 143.16 169.63 138.35 173.12"/>
        <polygon class="cls-2" points="157.91 156.25 159.75 150.6 154.94 147.11 160.88 147.11 162.72 141.46 164.56 147.11 170.5 147.11 165.69 150.6 167.53 156.25 162.72 152.76 157.91 156.25"/>
        <polygon class="cls-2" points="177.48 173.12 179.31 167.47 174.51 163.98 180.45 163.98 182.28 158.33 184.12 163.98 190.06 163.98 185.25 167.47 187.09 173.12 182.28 169.63 177.48 173.12"/>
        <polygon class="cls-2" points="197.04 156.25 198.88 150.6 194.07 147.11 200.01 147.11 201.85 141.46 203.68 147.11 209.62 147.11 204.82 150.6 206.65 156.25 201.85 152.76 197.04 156.25"/>
        <polygon class="cls-2" points="216.6 173.12 218.44 167.47 213.63 163.98 219.57 163.98 221.41 158.33 223.25 163.98 229.19 163.98 224.38 167.47 226.22 173.12 221.41 169.63 216.6 173.12"/>
        <polygon class="cls-2" points="236.17 156.25 238 150.6 233.2 147.11 239.14 147.11 240.97 141.46 242.81 147.11 248.75 147.11 243.94 150.6 245.78 156.25 240.97 152.76 236.17 156.25"/>
        <polygon class="cls-2" points="255.73 173.12 257.57 167.47 252.76 163.98 258.7 163.98 260.54 158.33 262.37 163.98 268.31 163.98 263.51 167.47 265.34 173.12 260.54 169.63 255.73 173.12"/>
        <polygon class="cls-2" points="275.29 156.25 277.13 150.6 272.32 147.11 278.27 147.11 280.1 141.46 281.94 147.11 287.88 147.11 283.07 150.6 284.91 156.25 280.1 152.76 275.29 156.25"/>
      </g>
      <g>
        <polygon class="cls-2" points="79.66 190.13 81.49 184.48 76.69 180.99 82.63 180.99 84.47 175.34 86.3 180.99 92.24 180.99 87.44 184.48 89.27 190.13 84.47 186.64 79.66 190.13"/>
        <polygon class="cls-2" points="99.22 207 101.06 201.35 96.25 197.86 102.19 197.86 104.03 192.21 105.87 197.86 111.81 197.86 107 201.35 108.83 207 104.03 203.51 99.22 207"/>
        <polygon class="cls-2" points="118.79 190.13 120.62 184.48 115.82 180.99 121.76 180.99 123.59 175.34 125.43 180.99 131.37 180.99 126.56 184.48 128.4 190.13 123.59 186.64 118.79 190.13"/>
        <polygon class="cls-2" points="138.35 207 140.19 201.35 135.38 197.86 141.32 197.86 143.16 192.21 144.99 197.86 150.93 197.86 146.13 201.35 147.96 207 143.16 203.51 138.35 207"/>
        <polygon class="cls-2" points="157.91 190.13 159.75 184.48 154.94 180.99 160.88 180.99 162.72 175.34 164.56 180.99 170.5 180.99 165.69 184.48 167.53 190.13 162.72 186.64 157.91 190.13"/>
        <polygon class="cls-2" points="177.48 207 179.31 201.35 174.51 197.86 180.45 197.86 182.28 192.21 184.12 197.86 190.06 197.86 185.25 201.35 187.09 207 182.28 203.51 177.48 207"/>
        <polygon class="cls-2" points="197.04 190.13 198.88 184.48 194.07 180.99 200.01 180.99 201.85 175.34 203.68 180.99 209.62 180.99 204.82 184.48 206.65 190.13 201.85 186.64 197.04 190.13"/>
        <polygon class="cls-2" points="216.6 207 218.44 201.35 213.63 197.86 219.57 197.86 221.41 192.21 223.25 197.86 229.19 197.86 224.38 201.35 226.22 207 221.41 203.51 216.6 207"/>
        <polygon class="cls-2" points="236.17 190.13 238 184.48 233.2 180.99 239.14 180.99 240.97 175.34 242.81 180.99 248.75 180.99 243.94 184.48 245.78 190.13 240.97 186.64 236.17 190.13"/>
        <polygon class="cls-2" points="255.73 207 257.57 201.35 252.76 197.86 258.7 197.86 260.54 192.21 262.37 197.86 268.31 197.86 263.51 201.35 265.34 207 260.54 203.51 255.73 207"/>
        <polygon class="cls-2" points="275.29 190.13 277.13 184.48 272.32 180.99 278.27 180.99 280.1 175.34 281.94 180.99 287.88 180.99 283.07 184.48 284.91 190.13 280.1 186.64 275.29 190.13"/>
      </g>
      <polygon class="cls-2" points="79.66 224.02 81.49 218.37 76.69 214.87 82.63 214.87 84.47 209.22 86.3 214.87 92.24 214.87 87.44 218.37 89.27 224.02 84.47 220.52 79.66 224.02"/>
      <polygon class="cls-2" points="118.79 224.02 120.62 218.37 115.82 214.87 121.76 214.87 123.59 209.22 125.43 214.87 131.37 214.87 126.56 218.37 128.4 224.02 123.59 220.52 118.79 224.02"/>
      <polygon class="cls-2" points="157.91 224.02 159.75 218.37 154.94 214.87 160.88 214.87 162.72 209.22 164.56 214.87 170.5 214.87 165.69 218.37 167.53 224.02 162.72 220.52 157.91 224.02"/>
      <polygon class="cls-2" points="197.04 224.02 198.88 218.37 194.07 214.87 200.01 214.87 201.85 209.22 203.68 214.87 209.62 214.87 204.82 218.37 206.65 224.02 201.85 220.52 197.04 224.02"/>
      <polygon class="cls-2" points="236.17 224.02 238 218.37 233.2 214.87 239.14 214.87 240.97 209.22 242.81 214.87 248.75 214.87 243.94 218.37 245.78 224.02 240.97 220.52 236.17 224.02"/>
      <polygon class="cls-2" points="275.29 224.02 277.13 218.37 272.32 214.87 278.27 214.87 280.1 209.22 281.94 214.87 287.88 214.87 283.07 218.37 284.91 224.02 280.1 220.52 275.29 224.02"/>
    </g>
  </g>
</svg>