<svg width="38" height="38" viewBox="0 0 38 38" fill="none" xmlns="http://www.w3.org/2000/svg">
<mask id="mask0_3643_8287" style="mask-type:alpha" maskUnits="userSpaceOnUse" x="0" y="0" width="38" height="38">
<rect opacity="0.23" width="9.42118" height="9.42118" rx="4.71059" transform="matrix(4.37114e-08 -1 -1 -4.37114e-08 35.9453 23.7109)" fill="#52AEFF"/>
<rect opacity="0.23" width="9.42118" height="9.42118" rx="4.71059" transform="matrix(4.37114e-08 -1 -1 -4.37114e-08 35.9453 11.3906)" fill="#52AEFF"/>
<rect opacity="0.23" width="9.42118" height="9.42118" rx="4.71059" transform="matrix(4.37114e-08 -1 -1 -4.37114e-08 11.3047 36.0308)" fill="#52AEFF"/>
<rect opacity="0.23" width="9.42118" height="9.42118" rx="4.71059" transform="matrix(4.37114e-08 -1 -1 -4.37114e-08 11.3047 23.7109)" fill="#52AEFF"/>
<path fill-rule="evenodd" clip-rule="evenodd" d="M36.5156 31.3201C36.5156 34.2362 34.1517 36.6001 31.2356 36.6001C28.6194 36.6001 26.4476 34.6973 26.0286 32.2001L24.1226 32.2001C23.7037 34.6973 21.5319 36.6001 18.9156 36.6001C15.9996 36.6001 13.6356 34.2362 13.6356 31.3201C13.6356 28.7039 15.5384 26.5321 18.0356 26.1131L18.0356 24.2071C15.5384 23.7881 13.6356 21.6163 13.6356 19.0001C13.6356 16.3839 15.5384 14.2121 18.0356 13.7931L18.0356 11.8871C15.8246 11.5162 14.0796 9.7711 13.7086 7.5601L11.8026 7.5601C11.3837 10.0573 9.21186 11.9601 6.59563 11.9601C3.67957 11.9601 1.31563 9.59616 1.31563 6.6801C1.31563 3.76404 3.67957 1.4001 6.59563 1.4001C9.21187 1.4001 11.3837 3.30291 11.8026 5.8001L13.7086 5.8001C14.1276 3.30291 16.2994 1.4001 18.9156 1.4001C21.8317 1.4001 24.1956 3.76404 24.1956 6.6801C24.1956 9.29634 22.2928 11.4681 19.7956 11.8871L19.7956 13.7931C22.2928 14.2121 24.1956 16.3839 24.1956 19.0001C24.1956 21.6163 22.2928 23.7881 19.7956 24.2071L19.7956 26.1131C22.0066 26.484 23.7517 28.2291 24.1226 30.4401L26.0286 30.4401C26.4476 27.9429 28.6194 26.0401 31.2356 26.0401C34.1517 26.0401 36.5156 28.404 36.5156 31.3201Z" fill="#52AEFF"/>
</mask>
<g mask="url(#mask0_3643_8287)">
<rect x="-3.08594" y="-3" width="44" height="44" fill="#36460A"/>
</g>
</svg>
