<svg width="44" height="44" viewBox="0 0 44 44" fill="none" xmlns="http://www.w3.org/2000/svg">
<g clip-path="url(#clip0_3644_9630)">
<mask id="mask0_3644_9630" style="mask-type:alpha" maskUnits="userSpaceOnUse" x="-6" y="-6" width="56" height="56">
<g clip-path="url(#clip1_3644_9630)">
<g opacity="0.5">
<path d="M36.4348 22.2722L21.9986 7.83597L16.0063 13.8283C15.7054 14.1292 15.2176 14.1292 14.9167 13.8283C14.6159 13.5275 14.6159 13.0397 14.9167 12.7388L20.9091 6.74645L19.8196 5.65692C19.5187 5.35606 19.5187 4.86826 19.8196 4.5674C20.1205 4.26654 20.6083 4.26654 20.9091 4.5674L22.0715 5.7298C22.3285 5.66116 22.6141 5.72766 22.8158 5.9293C23.0174 6.13094 23.0839 6.41654 23.0153 6.67357L37.5244 21.1826C37.8252 21.4835 37.8252 21.9713 37.5244 22.2722C37.2235 22.573 36.7357 22.573 36.4348 22.2722Z" fill="#52AEFF"/>
<path d="M14.0996 14.1007C14.4005 13.7999 14.8883 13.7999 15.1891 14.1007L29.8977 28.8093C30.1986 29.1102 30.1986 29.598 29.8977 29.8988C29.5968 30.1997 29.109 30.1997 28.8082 29.8988L14.0996 15.1902C13.7987 14.8894 13.7987 14.4016 14.0996 14.1007Z" fill="#52AEFF"/>
<path d="M29.0805 31.2607C29.3814 30.9599 29.3814 30.4721 29.0805 30.1712C28.7797 29.8703 28.2919 29.8703 27.991 30.1712L21.9986 36.1636L7.83483 21.9998C7.53397 21.6989 7.04617 21.6989 6.74531 21.9998C6.44444 22.3006 6.44444 22.7884 6.74531 23.0893L20.9091 37.2531C20.9329 37.2769 20.9579 37.2989 20.9839 37.3189C20.9121 37.5778 20.978 37.8668 21.1815 38.0702C21.4824 38.3711 21.9702 38.3711 22.271 38.0703L29.0805 31.2607Z" fill="#52AEFF"/>
</g>
<path d="M32.8945 17.6421C34.6996 15.8369 34.6996 12.9101 32.8945 11.1049C31.0893 9.29976 28.1625 9.29976 26.3573 11.1049C24.5521 12.9101 24.5521 15.8369 26.3573 17.6421C28.1625 19.4473 31.0893 19.4473 32.8945 17.6421Z" fill="#52AEFF"/>
<path d="M40.5211 25.2688C42.3263 23.4636 42.3263 20.5368 40.5211 18.7316C38.7159 16.9264 35.7892 16.9264 33.984 18.7316C32.1788 20.5368 32.1788 23.4636 33.984 25.2688C35.7892 27.0739 38.7159 27.0739 40.5211 25.2688Z" fill="#52AEFF"/>
<path d="M25.2678 3.4783C27.073 5.28348 27.073 8.21025 25.2678 10.0154C23.4626 11.8206 20.5358 11.8206 18.7306 10.0154C16.9255 8.21026 16.9255 5.28348 18.7306 3.47829C20.5358 1.67311 23.4626 1.67311 25.2678 3.4783Z" fill="#52AEFF"/>
<path d="M32.8945 32.8954C34.6996 31.0903 34.6996 28.1635 32.8945 26.3583C31.0893 24.5531 28.1625 24.5531 26.3573 26.3583C24.5521 28.1635 24.5521 31.0903 26.3573 32.8954C28.1625 34.7006 31.0893 34.7006 32.8945 32.8954Z" fill="#52AEFF"/>
<path d="M25.2678 18.7316C27.073 20.5368 27.073 23.4636 25.2678 25.2688C23.4626 27.0739 20.5358 27.0739 18.7306 25.2688C16.9255 23.4636 16.9255 20.5368 18.7306 18.7316C20.5358 16.9264 23.4626 16.9264 25.2678 18.7316Z" fill="#52AEFF"/>
<path d="M17.6411 17.6421C19.4463 15.8369 19.4463 12.9101 17.6411 11.1049C15.8359 9.29976 12.9092 9.29976 11.104 11.1049C9.2988 12.9101 9.2988 15.8369 11.104 17.6421C12.9092 19.4473 15.8359 19.4473 17.6411 17.6421Z" fill="#52AEFF"/>
<path d="M25.2678 33.9849C27.073 35.7901 27.073 38.7169 25.2678 40.5221C23.4626 42.3273 20.5358 42.3273 18.7306 40.5221C16.9255 38.7169 16.9255 35.7901 18.7306 33.9849C20.5358 32.1798 23.4626 32.1798 25.2678 33.9849Z" fill="#52AEFF"/>
<path d="M17.6411 32.8954C19.4463 31.0903 19.4463 28.1635 17.6411 26.3583C15.8359 24.5531 12.9092 24.5531 11.104 26.3583C9.2988 28.1635 9.29879 31.0903 11.104 32.8954C12.9092 34.7006 15.8359 34.7006 17.6411 32.8954Z" fill="#52AEFF"/>
<path d="M10.0145 18.7316C11.8196 20.5368 11.8196 23.4636 10.0145 25.2688C8.20927 27.0739 5.28249 27.0739 3.47731 25.2688C1.67213 23.4636 1.67213 20.5368 3.47731 18.7316C5.28249 16.9264 8.20927 16.9264 10.0145 18.7316Z" fill="#52AEFF"/>
</g>
</mask>
<g mask="url(#mask0_3644_9630)">
<rect width="44" height="44" transform="matrix(4.37114e-08 -1 -1 -4.37114e-08 44 44)" fill="#36460A"/>
</g>
</g>
<defs>
<clipPath id="clip0_3644_9630">
<rect width="44" height="44" fill="white" transform="matrix(4.37114e-08 -1 -1 -4.37114e-08 44 44)"/>
</clipPath>
<clipPath id="clip1_3644_9630">
<rect width="38.5205" height="38.5205" fill="white" transform="matrix(-0.707107 0.707107 0.707107 0.707107 22 -5.23828)"/>
</clipPath>
</defs>
</svg>
