<svg width="791" height="723" viewBox="0 0 791 723" fill="none" xmlns="http://www.w3.org/2000/svg">
<path d="M120.531 362.601C127.644 365.942 132.063 372.731 132.063 380.922C132.063 393.208 121.501 402.476 107.599 402.476H72.7891V327.037H106.845C120.208 327.037 130.015 335.119 130.015 346.327C130.015 353.009 126.243 359.044 120.531 362.601ZM110.293 349.776C110.293 345.789 107.599 343.202 103.288 343.202H92.7266V356.35H103.288C107.599 356.35 110.293 353.656 110.293 349.776ZM104.043 385.34C108.569 385.34 111.479 382.538 111.479 378.443C111.479 374.456 108.569 371.654 104.043 371.654H92.7266V385.34H104.043ZM169.93 404.308C152.794 404.308 141.263 393.747 141.263 377.473V344.172H161.308V376.611C161.308 382.754 164.649 386.31 169.93 386.31C175.318 386.31 178.552 382.646 178.552 376.611V344.172H198.597V377.473C198.597 393.747 187.173 404.308 169.93 404.308ZM257.091 344.172L270.562 344.28V396.01C270.562 414.223 258.6 425.539 239.417 425.539C222.928 425.539 211.396 417.241 208.702 403.446H227.993C229.394 407.326 234.351 409.481 239.201 409.481C245.991 409.481 251.379 405.17 251.379 398.273V396.549C246.961 399.243 241.788 400.859 236.184 400.859C219.479 400.859 207.086 388.466 207.086 371.654C207.086 355.057 219.479 342.34 236.184 342.34C243.189 342.34 249.547 344.926 254.505 349.129L257.091 344.172ZM239.524 384.37C246.745 384.37 251.918 379.09 251.918 371.654C251.918 364.325 246.745 358.937 239.524 358.937C232.304 358.937 227.023 364.325 227.023 371.654C227.023 379.09 232.196 384.37 239.524 384.37ZM355.332 362.601C362.445 365.942 366.864 372.731 366.864 380.922C366.864 393.208 356.302 402.476 342.4 402.476H307.59V327.037H341.646C355.009 327.037 364.816 335.119 364.816 346.327C364.816 353.009 361.044 359.044 355.332 362.601ZM345.094 349.776C345.094 345.789 342.4 343.202 338.089 343.202H327.528V356.35H338.089C342.4 356.35 345.094 353.656 345.094 349.776ZM338.843 385.34C343.37 385.34 346.28 382.538 346.28 378.443C346.28 374.456 343.37 371.654 338.843 371.654H327.528V385.34H338.843ZM406.024 404.308C387.057 404.308 373.477 391.268 373.477 373.27C373.477 355.272 387.057 342.34 406.024 342.34C424.992 342.34 438.679 355.272 438.679 373.27C438.679 391.268 424.992 404.308 406.024 404.308ZM406.024 386.31C413.353 386.31 418.633 381.03 418.633 373.378C418.633 365.726 413.353 360.338 406.024 360.338C398.804 360.338 393.523 365.618 393.523 373.378C393.523 381.03 398.804 386.31 406.024 386.31ZM475.876 404.308C458.741 404.308 447.209 393.747 447.209 377.473V344.172H467.255V376.611C467.255 382.754 470.596 386.31 475.876 386.31C481.265 386.31 484.498 382.646 484.498 376.611V344.172H504.543V377.473C504.543 393.747 493.12 404.308 475.876 404.308ZM551.506 342.555C564.977 342.555 573.922 352.147 573.922 366.912V402.368H553.877V369.714C553.877 362.924 551.29 359.583 546.225 359.583C539.975 359.583 536.418 363.894 536.418 371.33V402.368H516.373V344.172H530.491L533.185 350.207C537.496 345.358 543.962 342.555 551.506 342.555ZM616.99 384.909H624.642V402.368H610.847C598.022 402.368 590.155 394.501 590.155 381.568V359.691H579.486V354.949L605.566 327.252H609.769V344.172H624.318V359.691H610.201V378.228C610.201 382.323 612.787 384.909 616.99 384.909ZM673.373 344.172H694.927L670.463 399.782C662.596 417.672 655.483 424.03 640.395 424.03H633.498V406.895H639.102C646.753 406.895 649.016 404.847 651.711 397.626L627.678 344.172H649.448L661.841 376.288L673.373 344.172Z" fill="white"/>
<path d="M105.588 412.93C121.646 412.93 133.608 424.461 133.608 440.196C133.608 456.038 121.646 467.569 105.588 467.569H94.2724V488.369H73.4727V412.93H105.588ZM103.109 449.464C108.605 449.464 112.162 445.692 112.162 440.303C112.162 434.915 108.605 431.143 103.109 431.143H94.2724V449.464H103.109ZM174.51 429.958H179.899V448.279H172.032C165.027 448.279 162.009 451.404 162.009 458.84V488.369H141.964V430.173H155.435L158.56 436.639C162.656 431.897 167.613 429.958 174.51 429.958ZM215.688 490.309C196.72 490.309 183.141 477.269 183.141 459.271C183.141 441.273 196.72 428.341 215.688 428.341C234.656 428.341 248.343 441.273 248.343 459.271C248.343 477.269 234.656 490.309 215.688 490.309ZM215.688 472.311C223.016 472.311 228.297 467.031 228.297 459.379C228.297 451.727 223.016 446.339 215.688 446.339C208.467 446.339 203.187 451.619 203.187 459.379C203.187 467.031 208.467 472.311 215.688 472.311ZM304.292 430.173L317.764 430.281V482.011C317.764 500.224 305.801 511.54 286.618 511.54C270.129 511.54 258.598 503.242 255.903 489.447H275.194C276.595 493.327 281.553 495.482 286.402 495.482C293.192 495.482 298.58 491.171 298.58 484.274V482.55C294.162 485.244 288.989 486.86 283.385 486.86C266.68 486.86 254.287 474.467 254.287 457.655C254.287 441.058 266.68 428.341 283.385 428.341C290.39 428.341 296.748 430.927 301.706 435.13L304.292 430.173ZM286.726 470.371C293.946 470.371 299.119 465.091 299.119 457.655C299.119 450.326 293.946 444.938 286.726 444.938C279.505 444.938 274.224 450.326 274.224 457.655C274.224 465.091 279.397 470.371 286.726 470.371ZM363.004 429.958H368.392V448.279H360.525C353.52 448.279 350.502 451.404 350.502 458.84V488.369H330.457V430.173H343.928L347.054 436.639C351.149 431.897 356.106 429.958 363.004 429.958ZM421.963 430.173H436.944V488.369H421.425L419.7 484.274C414.958 488.154 408.923 490.309 402.134 490.309C384.352 490.309 371.635 477.377 371.635 459.271C371.635 441.273 384.352 428.449 402.134 428.449C409.031 428.449 415.174 430.712 419.916 434.699L421.963 430.173ZM404.828 472.635C412.372 472.635 417.868 466.923 417.868 459.271C417.868 451.727 412.372 446.123 404.828 446.123C397.284 446.123 391.788 451.727 391.788 459.271C391.788 466.923 397.284 472.635 404.828 472.635ZM518.136 428.556C530.638 428.556 538.828 438.256 538.828 451.943V488.369H518.783V454.421C518.783 448.279 516.627 445.369 512.317 445.369C506.82 445.369 504.018 449.141 504.018 456.469V488.369H484.512V454.421C484.512 448.494 482.249 445.369 478.045 445.369C472.657 445.369 469.639 449.248 469.639 456.469V488.369H449.594V430.173H463.712L466.514 436.532C470.717 431.574 476.86 428.556 483.542 428.556C490.655 428.556 496.582 431.682 500.246 437.07C504.449 431.79 510.915 428.556 518.136 428.556ZM619.382 428.556C631.883 428.556 640.073 438.256 640.073 451.943V488.369H620.028V454.421C620.028 448.279 617.873 445.369 613.562 445.369C608.067 445.369 605.264 449.141 605.264 456.469V488.369H585.757V454.421C585.757 448.494 583.494 445.369 579.291 445.369C573.902 445.369 570.885 449.248 570.885 456.469V488.369H550.839V430.173H564.957L567.759 436.532C571.962 431.574 578.105 428.556 584.787 428.556C591.9 428.556 597.827 431.682 601.492 437.07C605.695 431.79 612.161 428.556 619.382 428.556ZM712.005 458.732C712.005 460.564 711.898 462.289 711.682 464.121H668.466C669.759 470.803 673.962 474.251 680.321 474.251C684.955 474.251 688.943 472.204 690.776 468.755H710.82C706.725 482.011 694.87 490.309 680.321 490.309C662.108 490.309 648.745 477.053 648.745 459.271C648.745 441.489 662 428.341 680.321 428.341C699.073 428.341 712.005 441.704 712.005 458.732ZM680.321 444.075C674.501 444.075 670.406 447.201 668.789 453.02H692.283C690.559 447.201 686.356 444.075 680.321 444.075Z" fill="#85AB20"/>
<path d="M82.4544 543.151C81.1582 543.151 79.9649 542.938 78.8742 542.511C77.7836 542.084 76.8352 541.492 76.0291 540.733C75.223 539.958 74.5986 539.057 74.156 538.03C73.7135 536.987 73.4922 535.849 73.4922 534.616C73.4922 533.383 73.7135 532.253 74.156 531.225C74.5986 530.182 75.223 529.281 76.0291 528.522C76.8352 527.748 77.7836 527.147 78.8742 526.721C79.9649 526.294 81.1503 526.08 82.4307 526.08C83.7268 526.08 84.9123 526.294 85.9871 526.721C87.0777 527.147 88.0261 527.748 88.8322 528.522C89.6383 529.281 90.2627 530.182 90.7053 531.225C91.1479 532.253 91.3691 533.383 91.3691 534.616C91.3691 535.849 91.1479 536.987 90.7053 538.03C90.2627 539.073 89.6383 539.974 88.8322 540.733C88.0261 541.492 87.0777 542.084 85.9871 542.511C84.9123 542.938 83.7347 543.151 82.4544 543.151ZM82.4307 540.448C83.2684 540.448 84.0429 540.306 84.7542 540.022C85.4655 539.737 86.0819 539.334 86.6035 538.812C87.1251 538.275 87.5282 537.659 87.8127 536.963C88.113 536.252 88.2632 535.469 88.2632 534.616C88.2632 533.762 88.113 532.988 87.8127 532.292C87.5282 531.581 87.1251 530.965 86.6035 530.443C86.0819 529.905 85.4655 529.495 84.7542 529.21C84.0429 528.926 83.2684 528.783 82.4307 528.783C81.5929 528.783 80.8184 528.926 80.1071 529.21C79.4116 529.495 78.7952 529.905 78.2578 530.443C77.7362 530.965 77.3252 531.581 77.0249 532.292C76.7404 532.988 76.5981 533.762 76.5981 534.616C76.5981 535.454 76.7404 536.228 77.0249 536.939C77.3252 537.651 77.7362 538.275 78.2578 538.812C78.7794 539.334 79.3958 539.737 80.1071 540.022C80.8184 540.306 81.5929 540.448 82.4307 540.448ZM94.6362 542.914V526.317H101.465C102.935 526.317 104.191 526.555 105.235 527.029C106.294 527.503 107.108 528.183 107.677 529.068C108.246 529.953 108.53 531.004 108.53 532.221C108.53 533.438 108.246 534.489 107.677 535.374C107.108 536.26 106.294 536.939 105.235 537.414C104.191 537.888 102.935 538.125 101.465 538.125H96.3433L97.7185 536.679V542.914H94.6362ZM97.7185 537.01L96.3433 535.517H101.323C102.682 535.517 103.701 535.232 104.381 534.663C105.077 534.078 105.424 533.264 105.424 532.221C105.424 531.162 105.077 530.348 104.381 529.779C103.701 529.21 102.682 528.926 101.323 528.926H96.3433L97.7185 527.408V537.01ZM111.608 542.914V526.317H123.724V528.902H114.691V540.33H124.056V542.914H111.608ZM114.453 535.754V533.217H122.704V535.754H114.453ZM127.492 542.914V526.317H134.296C136.509 526.317 138.24 526.839 139.489 527.882C140.753 528.926 141.386 530.372 141.386 532.221C141.386 533.438 141.101 534.489 140.532 535.374C139.963 536.244 139.149 536.916 138.09 537.39C137.047 537.848 135.79 538.077 134.32 538.077H129.199L130.574 536.679V542.914H127.492ZM138.351 542.914L134.154 536.892H137.45L141.67 542.914H138.351ZM130.574 537.01L129.199 535.54H134.178C135.537 535.54 136.557 535.248 137.236 534.663C137.932 534.078 138.28 533.264 138.28 532.221C138.28 531.162 137.932 530.348 137.236 529.779C136.557 529.21 135.537 528.926 134.178 528.926H129.199L130.574 527.408V537.01ZM142.487 542.914L149.955 526.317H152.99L160.482 542.914H157.258L150.833 527.953H152.065L145.664 542.914H142.487ZM145.925 539.073L146.755 536.655H155.717L156.547 539.073H145.925ZM165.126 542.914V528.926H159.626V526.317H173.709V528.926H168.209V542.914H165.126ZM176.022 542.914V526.317H179.105V542.914H176.022ZM191.37 543.151C190.074 543.151 188.881 542.938 187.79 542.511C186.7 542.084 185.751 541.492 184.945 540.733C184.139 539.958 183.515 539.057 183.072 538.03C182.629 536.987 182.408 535.849 182.408 534.616C182.408 533.383 182.629 532.253 183.072 531.225C183.515 530.182 184.139 529.281 184.945 528.522C185.751 527.748 186.7 527.147 187.79 526.721C188.881 526.294 190.066 526.08 191.347 526.08C192.643 526.08 193.828 526.294 194.903 526.721C195.994 527.147 196.942 527.748 197.748 528.522C198.554 529.281 199.179 530.182 199.621 531.225C200.064 532.253 200.285 533.383 200.285 534.616C200.285 535.849 200.064 536.987 199.621 538.03C199.179 539.073 198.554 539.974 197.748 540.733C196.942 541.492 195.994 542.084 194.903 542.511C193.828 542.938 192.651 543.151 191.37 543.151ZM191.347 540.448C192.184 540.448 192.959 540.306 193.67 540.022C194.381 539.737 194.998 539.334 195.519 538.812C196.041 538.275 196.444 537.659 196.729 536.963C197.029 536.252 197.179 535.469 197.179 534.616C197.179 533.762 197.029 532.988 196.729 532.292C196.444 531.581 196.041 530.965 195.519 530.443C194.998 529.905 194.381 529.495 193.67 529.21C192.959 528.926 192.184 528.783 191.347 528.783C190.509 528.783 189.734 528.926 189.023 529.21C188.328 529.495 187.711 529.905 187.174 530.443C186.652 530.965 186.241 531.581 185.941 532.292C185.656 532.988 185.514 533.762 185.514 534.616C185.514 535.454 185.656 536.228 185.941 536.939C186.241 537.651 186.652 538.275 187.174 538.812C187.695 539.334 188.312 539.737 189.023 540.022C189.734 540.306 190.509 540.448 191.347 540.448ZM203.552 542.914V526.317H206.089L216.498 539.097H215.241V526.317H218.3V542.914H215.763L205.354 530.135H206.611V542.914H203.552ZM229.299 542.914V526.317H232.381V542.914H229.299ZM236.871 542.914V526.317H243.675C245.888 526.317 247.619 526.839 248.868 527.882C250.132 528.926 250.764 530.372 250.764 532.221C250.764 533.438 250.48 534.489 249.911 535.374C249.342 536.244 248.528 536.916 247.469 537.39C246.425 537.848 245.169 538.077 243.699 538.077H238.578L239.953 536.679V542.914H236.871ZM247.73 542.914L243.533 536.892H246.829L251.049 542.914H247.73ZM239.953 537.01L238.578 535.54H243.557C244.916 535.54 245.935 535.248 246.615 534.663C247.311 534.078 247.658 533.264 247.658 532.221C247.658 531.162 247.311 530.348 246.615 529.779C245.935 529.21 244.916 528.926 243.557 528.926H238.578L239.953 527.408V537.01ZM261.989 543.151C260.693 543.151 259.5 542.938 258.409 542.511C257.319 542.084 256.37 541.492 255.564 540.733C254.758 539.958 254.134 539.057 253.691 538.03C253.249 536.987 253.027 535.849 253.027 534.616C253.027 533.383 253.249 532.253 253.691 531.225C254.134 530.182 254.758 529.281 255.564 528.522C256.37 527.748 257.319 527.147 258.409 526.721C259.5 526.294 260.685 526.08 261.966 526.08C263.262 526.08 264.447 526.294 265.522 526.721C266.613 527.147 267.561 527.748 268.367 528.522C269.173 529.281 269.798 530.182 270.24 531.225C270.683 532.253 270.904 533.383 270.904 534.616C270.904 535.849 270.683 536.987 270.24 538.03C269.798 539.073 269.173 539.974 268.367 540.733C267.561 541.492 266.613 542.084 265.522 542.511C264.447 542.938 263.27 543.151 261.989 543.151ZM261.966 540.448C262.804 540.448 263.578 540.306 264.289 540.022C265.001 539.737 265.617 539.334 266.139 538.812C266.66 538.275 267.063 537.659 267.348 536.963C267.648 536.252 267.798 535.469 267.798 534.616C267.798 533.762 267.648 532.988 267.348 532.292C267.063 531.581 266.66 530.965 266.139 530.443C265.617 529.905 265.001 529.495 264.289 529.21C263.578 528.926 262.804 528.783 261.966 528.783C261.128 528.783 260.354 528.926 259.642 529.21C258.947 529.495 258.33 529.905 257.793 530.443C257.271 530.965 256.86 531.581 256.56 532.292C256.276 532.988 256.133 533.762 256.133 534.616C256.133 535.454 256.276 536.228 256.56 536.939C256.86 537.651 257.271 538.275 257.793 538.812C258.315 539.334 258.931 539.737 259.642 540.022C260.354 540.306 261.128 540.448 261.966 540.448ZM274.171 542.914V526.317H276.708L287.117 539.097H285.86V526.317H288.919V542.914H286.382L275.973 530.135H277.23V542.914H274.171ZM305.063 543.151C303.767 543.151 302.526 542.969 301.341 542.606C300.156 542.227 299.215 541.744 298.52 541.16L299.586 538.765C300.25 539.287 301.072 539.721 302.052 540.069C303.032 540.417 304.036 540.591 305.063 540.591C305.933 540.591 306.636 540.496 307.174 540.306C307.711 540.116 308.106 539.863 308.359 539.547C308.612 539.215 308.738 538.844 308.738 538.433C308.738 537.927 308.557 537.524 308.193 537.224C307.83 536.908 307.355 536.663 306.77 536.489C306.201 536.299 305.561 536.125 304.85 535.967C304.155 535.809 303.451 535.627 302.74 535.422C302.044 535.201 301.404 534.924 300.819 534.592C300.25 534.244 299.784 533.786 299.421 533.217C299.057 532.648 298.875 531.921 298.875 531.036C298.875 530.135 299.112 529.313 299.586 528.57C300.076 527.811 300.811 527.211 301.791 526.768C302.787 526.31 304.044 526.08 305.561 526.08C306.557 526.08 307.545 526.207 308.525 526.46C309.505 526.713 310.359 527.076 311.086 527.55L310.114 529.945C309.371 529.502 308.604 529.178 307.814 528.973C307.023 528.752 306.265 528.641 305.538 528.641C304.684 528.641 303.989 528.744 303.451 528.949C302.93 529.155 302.542 529.423 302.289 529.755C302.052 530.087 301.934 530.467 301.934 530.893C301.934 531.399 302.108 531.81 302.455 532.126C302.819 532.427 303.285 532.664 303.854 532.838C304.439 533.011 305.087 533.185 305.798 533.359C306.51 533.517 307.213 533.699 307.909 533.905C308.62 534.11 309.26 534.379 309.829 534.711C310.414 535.043 310.88 535.493 311.228 536.062C311.591 536.631 311.773 537.35 311.773 538.22C311.773 539.105 311.528 539.927 311.038 540.685C310.564 541.428 309.829 542.029 308.833 542.487C307.837 542.93 306.581 543.151 305.063 543.151ZM326.495 542.914V526.317H329.577V542.914H326.495ZM314.83 542.914V526.317H317.912V542.914H314.83ZM317.651 535.801V533.17H326.732V535.801H317.651ZM334.024 542.914V526.317H337.106V542.914H334.024ZM341.595 542.914V526.317H353.711V528.902H344.678V540.33H354.043V542.914H341.595ZM344.44 535.754V533.217H352.691V535.754H344.44ZM357.479 542.914V526.317H360.561V540.306H369.239V542.914H357.479ZM371.672 542.914V526.317H378.927C380.729 526.317 382.31 526.665 383.669 527.361C385.029 528.056 386.088 529.02 386.846 530.253C387.605 531.486 387.984 532.94 387.984 534.616C387.984 536.275 387.605 537.73 386.846 538.978C386.088 540.211 385.029 541.175 383.669 541.871C382.31 542.566 380.729 542.914 378.927 542.914H371.672ZM374.754 540.306H378.785C380.018 540.306 381.093 540.069 382.01 539.595C382.926 539.121 383.63 538.457 384.12 537.603C384.625 536.75 384.878 535.754 384.878 534.616C384.878 533.462 384.625 532.466 384.12 531.628C383.63 530.775 382.926 530.111 382.01 529.637C381.093 529.163 380.018 528.926 378.785 528.926H374.754V540.306Z" fill="white"/>
<path d="M391.954 349.547C405.382 341.794 422.553 346.396 430.306 359.824C438.059 373.253 433.458 390.424 420.03 398.177C406.601 405.93 389.43 401.329 381.677 387.901C373.923 374.472 378.525 357.3 391.954 349.547Z" fill="white" stroke="#D9D9D9" stroke-width="10.7771"/>
<path d="M391.037 375.81C391.037 376.031 391.228 376.21 391.463 376.21H394.87C395.105 376.21 395.296 376.031 395.296 375.81C395.296 375.589 395.105 375.41 394.87 375.41H391.463C391.228 375.41 391.037 375.589 391.037 375.81Z" fill="url(#paint0_linear_501_2)"/>
<path d="M398.277 367.631L395.58 365.245C395.408 365.095 395.139 365.101 394.977 365.262C394.816 365.423 394.825 365.677 394.996 365.828L397.712 368.229C397.727 368.243 397.747 368.249 397.764 368.261C396.204 370.254 395.286 372.836 395.286 375.569C395.286 377.819 395.889 379.912 396.917 381.661L394.396 384.029C394.23 384.186 394.23 384.439 394.396 384.595C394.48 384.674 394.589 384.712 394.698 384.712C394.807 384.712 394.916 384.673 394.999 384.595L397.374 382.364C399.168 384.948 401.952 386.618 405.082 386.618C408.212 386.618 410.997 384.948 412.792 382.363L415.19 384.617C415.274 384.695 415.383 384.734 415.492 384.734C415.601 384.734 415.71 384.695 415.793 384.617C415.96 384.461 415.96 384.207 415.793 384.051L413.249 381.66C414.178 380.08 414.747 378.217 414.85 376.211H417.87C418.105 376.211 418.296 376.032 418.296 375.811C418.296 375.59 418.105 375.411 417.87 375.411H414.869C414.835 372.715 413.925 370.186 412.381 368.231C412.4 368.219 412.421 368.213 412.438 368.197L415.172 365.796C415.344 365.645 415.352 365.392 415.192 365.23C415.032 365.068 414.762 365.06 414.59 365.211L411.869 367.601C411.345 367.033 410.752 366.542 410.117 366.11C410.118 366.099 410.123 366.088 410.123 366.077C410.123 365.336 409.711 364.663 409.017 364.136C409.043 364.12 409.072 364.108 409.095 364.087L411.664 361.685C411.831 361.529 411.831 361.276 411.665 361.119C411.499 360.962 411.228 360.961 411.063 361.118L408.495 363.519C408.429 363.58 408.398 363.657 408.383 363.736C407.489 363.265 406.316 362.982 405.011 362.982C403.736 362.982 402.586 363.253 401.699 363.703C401.68 363.633 401.647 363.565 401.587 363.511L398.877 361.11C398.706 360.957 398.436 360.965 398.275 361.126C398.114 361.288 398.122 361.541 398.293 361.692L401.003 364.094C401.012 364.103 401.024 364.105 401.034 364.113C400.324 364.644 399.901 365.325 399.901 366.077C399.901 366.118 399.91 366.158 399.923 366.196C399.328 366.615 398.772 367.09 398.277 367.631ZM405.012 363.783C407.221 363.783 409.102 364.745 409.261 365.918C407.867 367.158 406.427 367.787 404.979 367.787C402.799 367.787 401.184 366.349 400.761 365.932C400.907 364.753 402.795 363.783 405.012 363.783ZM400.485 366.798C401.244 367.459 402.852 368.586 404.98 368.586C405.018 368.586 405.055 368.581 405.092 368.58V369.807C405.092 370.028 405.283 370.208 405.518 370.208C405.753 370.208 405.944 370.028 405.944 369.807V368.499C407.185 368.297 408.401 367.703 409.573 366.725C412.322 368.562 414.027 371.91 414.027 375.569C414.027 380.887 410.473 385.269 405.944 385.767V373.009C405.944 372.788 405.753 372.609 405.518 372.609C405.283 372.609 405.092 372.788 405.092 373.009V385.818C405.089 385.818 405.086 385.818 405.082 385.818C400.15 385.818 396.138 381.22 396.138 375.569C396.138 371.972 397.801 368.651 400.485 366.798Z" fill="url(#paint1_linear_501_2)"/>
<path d="M442.151 303.266L418.922 343.499C417.401 346.134 418.304 349.503 420.938 351.024L420.938 351.024C423.573 352.545 426.942 351.642 428.463 349.007L451.691 308.774C453.213 306.14 452.31 302.771 449.675 301.25L449.675 301.25C447.041 299.729 443.672 300.631 442.151 303.266Z" fill="#D9D9D9"/>
<defs>
<linearGradient id="paint0_linear_501_2" x1="406.284" y1="360.999" x2="405.454" y2="382.69" gradientUnits="userSpaceOnUse">
<stop stop-color="#85AB20"/>
<stop offset="1" stop-color="#36460A"/>
</linearGradient>
<linearGradient id="paint1_linear_501_2" x1="406.284" y1="361" x2="405.454" y2="382.691" gradientUnits="userSpaceOnUse">
<stop stop-color="#85AB20"/>
<stop offset="1" stop-color="#36460A"/>
</linearGradient>
</defs>
</svg>
