<svg width="1240" height="1080" viewBox="0 0 1240 1080" fill="none" xmlns="http://www.w3.org/2000/svg">
<path d="M1196.38 458C1196.38 469.782 1205.93 479.333 1217.72 479.333C1229.5 479.333 1239.05 469.782 1239.05 458C1239.05 446.218 1229.5 436.667 1217.72 436.667C1205.93 436.667 1196.38 446.218 1196.38 458ZM740.379 874.199C740.379 885.982 749.93 895.533 761.713 895.533C773.495 895.533 783.046 885.982 783.046 874.199C783.046 862.417 773.495 852.866 761.713 852.866C749.93 852.866 740.379 862.417 740.379 874.199ZM1153.05 698.915L1155.73 701.881L1158.05 699.785L1156.58 697.029L1153.05 698.915ZM634.278 1149C634.278 1160.78 643.829 1170.33 655.611 1170.33C667.393 1170.33 676.944 1160.78 676.944 1149C676.944 1137.22 667.393 1127.67 655.611 1127.67C643.829 1127.67 634.278 1137.22 634.278 1149ZM926.848 553.033L924.163 550.068L922.848 551.259V553.033H926.848ZM1125.49 373.226L1128.17 376.191L1129.55 374.945L1129.49 373.089L1125.49 373.226ZM1109.22 -104L1113.21 -104.136L1113.08 -108H1109.22V-104ZM460.657 -104C460.657 -92.2179 470.208 -82.6667 481.99 -82.6667C493.772 -82.6667 503.323 -92.2179 503.323 -104C503.323 -115.782 493.772 -125.333 481.99 -125.333C470.208 -125.333 460.657 -115.782 460.657 -104ZM969.118 217.166C969.118 228.948 978.669 238.499 990.451 238.499C1002.23 238.499 1011.78 228.948 1011.78 217.166C1011.78 205.384 1002.23 195.833 990.451 195.833C978.669 195.833 969.118 205.384 969.118 217.166ZM1193.22 38.4892H1197.22V34.4892H1193.22V38.4892ZM1171.88 304C1171.88 315.782 1181.43 325.333 1193.22 325.333C1205 325.333 1214.55 315.782 1214.55 304C1214.55 292.218 1205 282.667 1193.22 282.667C1181.43 282.667 1171.88 292.218 1171.88 304ZM655.611 489.705L653.056 486.627L651.611 487.826V489.705H655.611ZM655.611 848.19H651.611V856.415L658.081 851.336L655.611 848.19ZM824.434 698.915C824.434 710.697 833.985 720.248 845.767 720.248C857.549 720.248 867.1 710.697 867.1 698.915C867.1 687.133 857.549 677.582 845.767 677.582C833.985 677.582 824.434 687.133 824.434 698.915ZM634.278 164.015C634.278 175.797 643.829 185.349 655.611 185.349C667.393 185.349 676.944 175.797 676.944 164.015C676.944 152.233 667.393 142.682 655.611 142.682C643.829 142.682 634.278 152.233 634.278 164.015ZM499.716 607L499.59 603.002L496.981 603.084L496.006 605.505L499.716 607ZM1185.88 584.698C1185.88 596.48 1195.43 606.031 1207.22 606.031C1219 606.031 1228.55 596.48 1228.55 584.698C1228.55 572.916 1219 563.364 1207.22 563.364C1195.43 563.364 1185.88 572.916 1185.88 584.698ZM903.985 553.033V557.033H907.985V553.033H903.985ZM478.383 398.5C478.383 410.282 487.934 419.833 499.716 419.833C511.498 419.833 521.05 410.282 521.05 398.5C521.05 386.718 511.498 377.167 499.716 377.167C487.934 377.167 478.383 386.718 478.383 398.5ZM136.216 398.5V394.5H132.216V398.5H136.216ZM335.883 616C335.883 627.782 345.434 637.333 357.216 637.333C368.998 637.333 378.55 627.782 378.55 616C378.55 604.218 368.998 594.667 357.216 594.667C345.434 594.667 335.883 604.218 335.883 616ZM357.216 810.5L354.759 813.656L356.095 814.696L357.772 814.461L357.216 810.5ZM600.383 791.081C600.383 802.863 609.934 812.414 621.716 812.414C633.498 812.414 643.05 802.863 643.05 791.081C643.05 779.299 633.498 769.747 621.716 769.747C609.934 769.747 600.383 779.299 600.383 791.081ZM421.361 874.199H417.361V878.199H421.361V874.199ZM1131.71 874.199C1131.71 885.982 1141.27 895.533 1153.05 895.533C1164.83 895.533 1174.38 885.982 1174.38 874.199C1174.38 862.417 1164.83 852.866 1153.05 852.866C1141.27 852.866 1131.71 862.417 1131.71 874.199ZM234.883 398.5C234.883 410.282 244.434 419.833 256.216 419.833C267.998 419.833 277.55 410.282 277.55 398.5C277.55 386.718 267.998 377.167 256.216 377.167C244.434 377.167 234.883 386.718 234.883 398.5ZM136.216 522H132.216V522.7L132.454 523.359L136.216 522ZM228.716 607L226.01 609.945L226.19 610.111L226.389 610.253L228.716 607ZM194.716 684L190.954 685.359L191.347 686.446L192.259 687.156L194.716 684ZM499.716 553.033H495.716V557.033H499.716V553.033ZM1217.72 458L1214.88 455.182L1089.14 581.88L1091.98 584.698L1094.82 587.515L1220.56 460.818L1217.72 458ZM1091.98 584.698L1088.46 586.584L1149.52 700.801L1153.05 698.915L1156.58 697.029L1095.51 582.812L1091.98 584.698ZM1153.05 698.915L1150.36 695.949L652.927 1146.03L655.611 1149L658.295 1151.97L1155.73 701.881L1153.05 698.915ZM1091.98 584.698L1089.35 581.69L924.211 726.441L926.848 729.449L929.484 732.457L1094.62 587.706L1091.98 584.698ZM926.848 729.449L924.211 726.441L759.076 871.191L761.713 874.199L764.349 877.207L929.484 732.457L926.848 729.449ZM926.848 729.449H930.848V553.033H926.848H922.848V729.449H926.848ZM926.848 553.033L929.532 555.999L1128.17 376.191L1125.49 373.226L1122.81 370.26L924.163 550.068L926.848 553.033ZM1125.49 373.226L1129.49 373.089L1113.21 -104.136L1109.22 -104L1105.22 -103.864L1121.49 373.362L1125.49 373.226ZM1109.22 -104V-108H817.519V-104V-100H1109.22V-104ZM817.519 -104H813.519V38.4892H817.519H821.519V-104H817.519ZM817.519 38.4892H813.519V355.334H817.519H821.519V38.4892H817.519ZM817.519 38.4892V42.4892H990.451V38.4892V34.4892H817.519V38.4892ZM990.451 38.4892V42.4892H1193.22V38.4892V34.4892H990.451V38.4892ZM1193.22 38.4892H1189.22V304H1193.22H1197.22V38.4892H1193.22ZM817.519 355.334L814.965 352.256L653.056 486.627L655.611 489.705L658.165 492.783L820.074 358.412L817.519 355.334ZM655.611 489.705H651.611V848.19H655.611H659.611V489.705H655.611ZM655.611 848.19L658.081 851.336L848.237 702.062L845.767 698.915L843.297 695.769L653.141 845.043L655.611 848.19ZM817.519 -104V-108H649.755V-104V-100H817.519V-104ZM649.755 -104V-108H481.99V-104V-100H649.755V-104ZM649.755 -104L645.756 -103.913L651.612 164.103L655.611 164.015L659.61 163.928L653.754 -104.087L649.755 -104ZM499.716 607L499.842 610.998L1207.34 588.696L1207.22 584.698L1207.09 580.7L499.59 603.002L499.716 607ZM817.519 355.334L820.016 358.459L906.482 289.375L903.985 286.25L901.488 283.125L815.022 352.209L817.519 355.334ZM903.985 286.25L906.482 289.375L992.948 220.291L990.451 217.166L987.954 214.041L901.488 283.125L903.985 286.25ZM903.985 286.25H899.985V553.033H903.985H907.985V286.25H903.985ZM357.216 810.5L357.772 814.461L421.916 805.461L421.361 801.5L420.805 797.539L356.66 806.539L357.216 810.5ZM421.361 801.5L421.568 805.495L621.924 795.075L621.716 791.081L621.509 787.086L421.153 797.505L421.361 801.5ZM421.361 801.5H417.361V874.199H421.361H425.361V801.5H421.361ZM421.361 874.199V878.199H1153.05V874.199V870.199H421.361V874.199ZM421.361 801.5L425.071 802.995L503.426 608.495L499.716 607L496.006 605.505L417.65 800.005L421.361 801.5ZM136.216 398.5V402.5H256.216V398.5V394.5H136.216V398.5ZM136.216 398.5H132.216V522H136.216H140.216V398.5H136.216ZM136.216 522L133.51 524.945L226.01 609.945L228.716 607L231.423 604.055L138.923 519.055L136.216 522ZM357.216 810.5H361.216V698.915H357.216H353.216V810.5H357.216ZM357.216 698.915H361.216V616H357.216H353.216V698.915H357.216ZM228.716 607L226.389 610.253L354.889 702.169L357.216 698.915L359.543 695.662L231.043 603.747L228.716 607ZM136.216 522L132.454 523.359L190.954 685.359L194.716 684L198.478 682.641L139.978 520.641L136.216 522ZM194.716 684L192.259 687.156L354.759 813.656L357.216 810.5L359.673 807.344L197.173 680.844L194.716 684ZM903.985 553.033V549.033H499.716V553.033V557.033H903.985V553.033ZM499.716 553.033H503.716V398.5H499.716H495.716V553.033H499.716Z" fill="#85AB20" fill-opacity="0.2"/>
<path d="M332.656 56.0004C247.705 126.822 195.577 153.296 96.1537 181.561L82.2166 311.482V442.275C107.322 699.484 218.108 859.503 332.656 914C463.757 857.76 603.419 733.764 626.217 442.275V117.909C475.541 118.607 411.062 105.249 332.656 56.0004Z" stroke="#85AB20" stroke-opacity="0.1" stroke-width="20"/>
<path d="M295.265 569.436C295.265 569.436 295.265 582.627 295.265 523.119C295.265 463.61 410.872 462.314 410.872 523.119C410.872 583.923 410.872 569.436 410.872 569.436M295.265 569.436H410.872M295.265 569.436C283.707 569.436 274.402 578.926 274.628 590.481L275.82 651.488C276.086 665.103 287.198 676 300.815 676H408.216C422.023 676 433.216 664.807 433.216 651V591.781C433.216 579.44 423.212 569.436 410.872 569.436" stroke="#85AB20" stroke-opacity="0.1" stroke-width="10"/>
</svg>
