<svg width="18" height="21" viewBox="0 0 18 21" fill="none" xmlns="http://www.w3.org/2000/svg">
<path d="M7.31961 20.0814L2.07166 15.0518C0.895933 13.925 0.236328 12.4033 0.236328 10.8176V3.18198C0.236328 2.07121 1.06267 1.12977 2.17451 0.973961L8.77853 0.0480213C8.98842 0.0186081 9.20144 0.0186081 9.41133 0.0480213L16.0153 0.973961C17.1272 1.12977 17.9535 2.07121 17.9535 3.18198V10.8176C17.9535 12.4033 17.2941 13.925 16.1182 15.0518L10.8705 20.0814C9.89268 21.0184 8.29718 21.0184 7.31961 20.0814Z" fill="white"/>
<path d="M3.59753 5.54115L4.90178 7.81384C6.07882 9.86456 7.91141 11.6034 10.0728 12.7201L12.4681 13.9576L11.0857 15.2695L10.555 15.1113C6.77299 13.9836 3.57021 10.9447 2.38162 7.35613L2.21484 6.85283L3.59753 5.54115Z" fill="#36460A"/>
<path d="M10.9979 11.8228L14.4824 12.8951C14.7785 12.9862 14.9408 13.288 14.8447 13.569L14.766 13.7994C14.3194 15.1058 12.8413 15.8211 11.4645 15.3976L10.9105 15.2271C10.0632 14.9663 9.59919 14.1034 9.87408 13.2996L10.2559 12.1819C10.3562 11.8884 10.6886 11.7276 10.9979 11.8228Z" fill="#36460A"/>
<path d="M5.88058 7.01389L4.75041 3.70778C4.6543 3.42685 4.33631 3.27286 4.04022 3.36405L3.79713 3.43869C2.42057 3.86243 1.66634 5.26485 2.11294 6.57116L2.29267 7.09681C2.56732 7.90071 3.47702 8.34099 4.32406 8.08017L5.50205 7.71789C5.81156 7.62268 5.98092 7.30734 5.88058 7.01389Z" fill="#36460A"/>
<path d="M2.98225 3.60198L4.24032 6.76998C4.2693 6.84284 4.35504 6.87971 4.43206 6.85223C4.50885 6.82474 4.54772 6.74338 4.51874 6.6703L3.2609 3.50253C3.23193 3.42945 3.14595 3.39257 3.06916 3.42006C2.99214 3.44777 2.95328 3.52912 2.98225 3.60198Z" fill="white"/>
<path d="M14.8191 14.1953L11.4785 13.0064C11.4015 12.979 11.3158 13.016 11.2868 13.089C11.2581 13.162 11.2969 13.2434 11.374 13.2708L14.7145 14.4597C14.7916 14.4872 14.8773 14.4501 14.906 14.3772C14.935 14.3041 14.8959 14.2228 14.8191 14.1953Z" fill="white"/>
<path d="M13.5635 5.07566C12.5596 3.85361 11.1168 3.07608 9.50095 2.88634C9.48587 2.88455 9.47104 2.88388 9.4562 2.88388C9.38082 2.88388 9.30733 2.906 9.24538 2.94802C9.16317 3.00389 9.109 3.09038 9.09651 3.18537C9.08473 3.27678 9.11088 3.36684 9.17024 3.43925C9.22983 3.51189 9.31558 3.55793 9.41168 3.5691C10.8358 3.73672 12.1071 4.42172 12.9918 5.49806C13.8763 6.57484 14.2664 7.91177 14.09 9.26305C14.0779 9.35423 14.1043 9.44439 14.1637 9.51689C14.2233 9.5893 14.3093 9.63545 14.4054 9.64678C14.496 9.65742 14.5867 9.63557 14.6607 9.58521C14.7429 9.52938 14.7971 9.44278 14.8096 9.34762C15.0098 7.81455 14.5674 6.29749 13.5635 5.07566Z" fill="#36460A"/>
<path d="M10.3227 7.47382C9.87519 6.92917 9.23096 6.58254 8.50876 6.49783C8.49392 6.49604 8.47884 6.49515 8.464 6.49515C8.38863 6.49515 8.31513 6.51728 8.25318 6.55929C8.17098 6.61516 8.1168 6.70166 8.10432 6.79686C8.07982 6.98504 8.22139 7.15713 8.41972 7.1806C8.94971 7.24295 9.42246 7.49729 9.75082 7.89689C10.0789 8.29649 10.2236 8.79345 10.1581 9.29622C10.1461 9.38738 10.1722 9.47749 10.2318 9.55002C10.2914 9.62247 10.3771 9.66864 10.4733 9.67997C10.5637 9.69064 10.6546 9.66882 10.7288 9.61845C10.811 9.56262 10.8652 9.47602 10.8777 9.38085C10.9672 8.6957 10.77 8.01847 10.3227 7.47382Z" fill="#36460A"/>
<path d="M11.9379 6.27848C11.2176 5.4015 10.1821 4.84344 9.02229 4.70733C9.00745 4.70554 8.99238 4.70465 8.9773 4.70465C8.90216 4.70465 8.82891 4.727 8.76696 4.76901C8.68475 4.82489 8.63034 4.91138 8.61809 5.00659C8.60608 5.09777 8.63222 5.18784 8.69182 5.26047C8.75141 5.33266 8.83715 5.37892 8.93326 5.39032C10.934 5.62543 12.3605 7.36152 12.113 9.26017C12.1009 9.35133 12.1273 9.44147 12.1869 9.51397C12.2463 9.58636 12.332 9.63249 12.4284 9.64386C12.5181 9.65441 12.6083 9.63289 12.6821 9.58332L12.6837 9.58218C12.7659 9.52635 12.8201 9.43984 12.8326 9.34481C12.976 8.24431 12.6585 7.15524 11.9379 6.27848Z" fill="#36460A"/>
</svg>
