<svg width="40" height="40" viewBox="0 0 40 40" fill="none" xmlns="http://www.w3.org/2000/svg">
<path d="M25.4803 11.2359L20.3615 16.3547L13.6178 9.6109L11.3428 11.8859L20.3615 20.9047L27.7553 13.5109L25.4803 11.2359Z" fill="#2A2727"/>
<path d="M30.1116 16.1921L22.7991 8.87964H30.1116V16.1921Z" fill="#1A1A1A"/>
<path d="M37.0174 25.7797L35.0674 23.8297C28.1611 17.0859 11.5861 18.0609 5.65488 23.8297L3.70488 25.7797C3.13613 26.3484 3.13613 27.1609 3.70488 27.7297L7.60488 31.5484C8.17363 32.1172 8.98613 32.1172 9.55488 31.5484L13.8611 27.4047L13.5361 22.8547C14.9174 21.4734 25.8049 21.4734 27.1861 22.8547L26.9424 27.5672L31.0861 31.5484C31.6549 32.1172 32.4674 32.1172 33.0361 31.5484L36.9361 27.7297C37.5861 27.1609 37.5861 26.2672 37.0174 25.7797Z" fill="#1A1A1A"/>
</svg>
