<svg width="46" height="41" viewBox="0 0 46 41" fill="none" xmlns="http://www.w3.org/2000/svg">
<path d="M18.4519 3.00924V2.59586H8.52844L7.19366 0.438878C7.1186 0.318172 6.98806 0.244584 6.84773 0.244584H1.33323C1.22635 0.244584 1.1211 0.289246 1.04522 0.366134C0.969348 0.443022 0.925293 0.549655 0.925293 0.657959V6.2253C0.925293 6.3336 0.969348 6.44027 1.04522 6.51716C1.1211 6.59405 1.22635 6.63867 1.33323 6.63867H18.4519C18.5588 6.63867 18.664 6.59405 18.7399 6.51716C18.8158 6.44027 18.8598 6.3336 18.8598 6.2253V3.00924C18.8598 2.90011 18.8158 2.79428 18.7399 2.71656C18.664 2.63968 18.5588 2.59586 18.4519 2.59586V3.00924H18.044V5.81192H1.74117V1.07134H6.62173L7.95732 3.22917C8.03157 3.34905 8.16211 3.42261 8.30244 3.42261H18.4519V3.00924Z" fill="black"/>
<path d="M18.4519 15.6532V15.2398H1.74117V6.6383H19.0777L18.0464 15.6053L18.4519 15.6532L18.8566 15.7012L19.9409 6.27208C19.9539 6.15551 19.918 6.03808 19.8405 5.94961C19.763 5.86198 19.6521 5.81155 19.5354 5.81155H1.33323C1.22635 5.81155 1.1211 5.85537 1.04522 5.93226C0.969348 6.00914 0.925293 6.1158 0.925293 6.22493V15.6532C0.925293 15.7623 0.969348 15.8682 1.04522 15.9451C1.1211 16.022 1.22635 16.0666 1.33323 16.0666H18.4519C18.6583 16.0666 18.8329 15.9095 18.8566 15.7012L18.4519 15.6532Z" fill="black"/>
<path d="M44.4944 37.0661V36.6527H23.4057V23.7943H44.0865V37.0661H44.4944H44.9024V23.3809C44.9024 23.2718 44.8591 23.1651 44.7833 23.0882C44.7074 23.0113 44.6021 22.9675 44.4944 22.9675H22.9978C22.8901 22.9675 22.7848 23.0113 22.709 23.0882C22.6331 23.1651 22.5898 23.2718 22.5898 23.3809V37.0661C22.5898 37.1752 22.6331 37.2819 22.709 37.3588C22.7848 37.4357 22.8901 37.4795 22.9978 37.4795H44.4944C44.6021 37.4795 44.7074 37.4357 44.7833 37.3588C44.8591 37.2819 44.9024 37.1752 44.9024 37.0661H44.4944Z" fill="black"/>
<path d="M44.3798 40.3413V39.9279H23.1124C22.7795 39.9279 22.5103 39.6551 22.5095 39.3178V37.4799H44.9819V39.3178C44.9819 39.6551 44.7118 39.9279 44.3798 39.9279V40.3413V40.7546C45.163 40.7546 45.7978 40.1114 45.7978 39.3178V37.0665C45.7978 36.9574 45.7546 36.8516 45.6787 36.7747C45.6028 36.6978 45.4976 36.6531 45.3899 36.6531H22.1015C21.9938 36.6531 21.8894 36.6978 21.8127 36.7747C21.7368 36.8516 21.6936 36.9574 21.6936 37.0665V39.3178C21.6936 40.1114 22.3284 40.7546 23.1124 40.7546H44.3798V40.3413Z" fill="black"/>
<path d="M24.196 7.72933H33.3387V17.6694H34.1546V7.31596C34.1546 7.20683 34.1114 7.10102 34.0355 7.02413C33.9596 6.94724 33.8544 6.90258 33.7467 6.90258H24.196V7.72933Z" fill="black"/>
<path d="M30.3303 14.5715L33.4445 17.9529C33.5204 18.0364 33.6289 18.0843 33.7407 18.0843C33.8532 18.0852 33.9618 18.0372 34.0384 17.9546L37.1951 14.574L36.602 14.006L33.7448 17.0675L30.9267 14.0077L30.3303 14.5715Z" fill="black"/>
<path d="M18.5338 30.8603H9.39107V20.9202H8.5752V31.2736C8.5752 31.3819 8.61925 31.4886 8.69513 31.5655C8.771 31.6432 8.87625 31.687 8.98313 31.687H18.5338V30.8603Z" fill="black"/>
<path d="M12.3992 24.0187L9.28581 20.6381C9.20912 20.5546 9.10062 20.5066 8.98884 20.5066C8.87707 20.5058 8.76775 20.5538 8.69106 20.6356L5.53442 24.017L6.12757 24.585L8.98557 21.5236L11.8028 24.5834L12.3992 24.0187Z" fill="black"/>
</svg>
